<svg xmlns="http://www.w3.org/2000/svg" viewBox="0 0 394.04 411.41"><defs><style>.cls-1,.cls-2,.cls-7{fill:#4140e2;}.cls-2{font-size:94.63px;font-family:Gotham-Book, Gotham Book;letter-spacing:-0.03em;}.cls-3{letter-spacing:-0.02em;}.cls-4{letter-spacing:-0.03em;}.cls-5{letter-spacing:-0.02em;}.cls-6{letter-spacing:-0.02em;}.cls-7{font-size:44.16px;font-family:Gotham-Black, Gotham Black;font-weight:800;letter-spacing:0.06em;}.cls-8{letter-spacing:0.05em;}</style></defs><g id="Layer_2" data-name="Layer 2"><g id="Option_2"><path class="cls-1" d="M184.77,17.8A103.37,103.37,0,0,0,81.41,122.61c.76,55.2,45.45,100.46,100.63,101.88a103,103,0,0,0,54.42-13.8l-51.69-89.53Z"/><path class="cls-1" d="M260.48,210.89a103.31,103.31,0,0,0,51.67-89.52H208.79Z"/><path class="cls-1" d="M312.13,103.37A103.37,103.37,0,0,0,208.77,0V103.37Z"/><text class="cls-2" transform="translate(0 340.65)">C<tspan class="cls-3" x="52.24" y="0">o</tspan><tspan class="cls-4" x="102.58" y="0">ff</tspan><tspan class="cls-5" x="154.91" y="0">ee</tspan><tspan class="cls-6" x="246.51" y="0">C</tspan><tspan class="cls-3" x="299.13" y="0">an</tspan></text><text class="cls-7" transform="translate(100.06 400.37)">INSIGH<tspan class="cls-8" x="145.16" y="0">T</tspan><tspan x="169.49" y="0">S</tspan></text></g></g></svg>